# xmcd
#
# Track frame offsets:
#	150
#	14517
#	25609
#	38971
#	52186
#	67061
#	80374
#	91654
#	104507
#	115244
#	129758
#	142313
#	155679
#	169482
#
# Disc length: 2457 seconds
#
# Revision: 1
# Processed by: cddbd v1.5.2PL0 Copyright (c) Steve Scherf et al.
# Submitted via: audiograbber 1.83.01
#
DISCID=c209970e
DTITLE=Cavalkad - Live
DYEAR=2006
DGENRE=Dance
TTITLE0=Ingen har dina ögon (Live)
TTITLE1=Du kom försent (Live)
TTITLE2=Sol över Capri (Live)
TTITLE3=En kväll med dig (Live)
TTITLE4=Green green grass of home (Live)
TTITLE5=Ge mig tid (Live)
TTITLE6=Alltid tänker jag på dig (Live)
TTITLE7=Vad hjärtat gömt (Live)
TTITLE8=Rythm of the rain (Live)
TTITLE9=Varför (Live)
TTITLE10=You never can tell (Live)
TTITLE11=Jag vill ha en egen måne (Live)
TTITLE12=My girl Josephine (Live)
TTITLE13=Välkommen hem igen (Live)
EXTD=
EXTT0=
EXTT1=
EXTT2=
EXTT3=
EXTT4=
EXTT5=
EXTT6=
EXTT7=
EXTT8=
EXTT9=
EXTT10=
EXTT11=
EXTT12=
EXTT13=
PLAYORDER=
